<svg width="297" height="145" viewBox="0 0 297 145" fill="none" xmlns="http://www.w3.org/2000/svg">
<path d="M1.5 70.5203H296.5C296.5 70.5203 -24.5774 145.666 36.5 64.5203C64.9354 26.7418 140.5 2.52029 140.5 2.52029L69.5 143.52C69.5 143.52 138.854 1.30253 147.5 48.5203C149.54 59.6603 142.5 77.5203 142.5 77.5203C142.5 77.5203 154.175 39.5382 165.5 48.5203C174.373 55.5577 164.5 77.5203 164.5 77.5203C164.5 77.5203 180.175 37.9761 191.5 48.5203C199.789 56.2375 179.5 77.5203 179.5 77.5203" stroke="#804A4A" stroke-width="3" stroke-linecap="round"/>
<circle cx="212" cy="38.0203" r="2.5" fill="#804A4A"/>
<circle cx="237" cy="26.0203" r="2.5" fill="#804A4A"/>
<circle cx="263" cy="15.0203" r="2.5" fill="#804A4A"/>
</svg>
